<?xml version="1.0" encoding="UTF-8" standalone="no"?>
<!DOCTYPE svg PUBLIC "-//W3C//DTD SVG 1.1//EN" "http://www.w3.org/Graphics/SVG/1.1/DTD/svg11.dtd">
<!-- Created with Vectornator (http://vectornator.io/) -->
<svg height="100%" stroke-miterlimit="10" style="fill-rule:nonzero;clip-rule:evenodd;stroke-linecap:round;stroke-linejoin:round;" version="1.1" viewBox="0 0 2000 2000" width="100%" xml:space="preserve" xmlns="http://www.w3.org/2000/svg" xmlns:vectornator="http://vectornator.io" xmlns:xlink="http://www.w3.org/1999/xlink">
<defs/>
<g id="Layer-1" vectornator:layerName="Layer 1">
<path d="M1601.99 770.783L1569.24 794.374L1460.8 643.801L1493.55 620.21L1601.99 770.783Z" fill="#e7ab29" fill-rule="nonzero" opacity="1" stroke="none"/>
<path d="M543.955 810.723L779.872 810.723L779.872 568.136L943.264 568.136L943.264 1196.69L779.872 1196.69L779.872 937.435L543.955 937.435L543.955 1196.69L380.563 1196.69L380.563 568.136L543.955 568.136L543.955 810.723Z" fill="#e8ab29" opacity="1" stroke="none"/>
<path d="M1271.49 545.658C1257.44 544.872 1243.42 545.223 1229.48 546.729C1173.7 552.75 1119.83 574.902 1067.6 612.816C1027.33 642.053 995.522 674.934 972.086 711.546C948.65 748.156 933.666 786.446 927.136 826.329C920.606 866.213 922.823 906.916 933.825 948.604C944.825 990.291 964.415 1030.59 992.688 1069.54C1021.28 1108.93 1053.9 1140.24 1090.35 1163.45C1126.8 1186.67 1164.98 1201.61 1204.86 1208.14C1244.75 1214.67 1285.2 1212.71 1326.6 1202.25C1368.01 1191.79 1408.32 1172.46 1447.27 1144.19C1475.6 1123.63 1500.05 1100.34 1520.58 1074.62C1541.11 1048.91 1557.08 1021.57 1568.74 992.484C1580.41 963.402 1586.96 932.949 1588.28 901.246C1589.59 869.541 1585.36 837.251 1575.7 804.389C1572.38 793.058 1568.28 781.713 1563.39 770.409L1419.45 873.955C1426.72 888.858 1431.18 903.176 1432.29 916.764C1433.48 931.442 1431.53 945.446 1426.67 958.771C1421.81 972.096 1414.59 984.679 1404.73 996.23C1394.87 1007.78 1383.32 1018.22 1370.48 1027.53C1348.8 1043.28 1327.14 1053.18 1305.47 1057.77C1283.79 1062.35 1262.76 1062.21 1242.05 1056.97C1221.35 1051.72 1201.63 1041.93 1182.92 1027.8C1164.22 1013.67 1146.97 996.07 1131.55 974.825C1114.52 951.366 1102.56 927.612 1095.16 903.921C1087.77 880.23 1084.58 857.653 1086.07 835.961C1087.55 814.269 1093.63 794.093 1104.26 775.225C1114.89 756.355 1130 739.863 1149.48 725.726C1172.94 708.699 1198.15 699.282 1225.2 697.9C1252.24 696.517 1281.53 705.568 1312.96 724.656L1399.38 583.92C1356.33 560.931 1313.62 548.018 1271.49 545.658Z" fill="#e8ab29" fill-rule="nonzero" opacity="1" stroke="none"/>
<path d="M1262.22 860.557L1513.2 663.318L1557.08 719.151L1306.1 916.39L1262.22 860.557Z" fill="#fffffe" fill-rule="nonzero" opacity="1" stroke="none"/>
<path d="M1532.58 743.922L1572.68 715.053L1589.33 717.763L1665.58 624.65C1666.33 620.046 1649.93 598.161 1645.33 597.413L1530.68 636.318L1527.97 652.968L1487.88 681.839L1532.58 743.922ZM1237.23 936.007L1323.91 950.111C1326.47 950.528 1329.08 949.91 1331.18 948.382L1592.87 758.823L1556.63 708.191L1311.74 885.575C1307.36 888.749 1301.27 887.758 1298.12 883.359C1294.97 878.96 1295.97 872.839 1300.35 869.666L1545.24 692.282L1509 641.651L1247.3 831.21C1245.19 832.726 1243.78 835.031 1243.36 837.598L1229.18 924.756C1228.31 930.102 1231.91 935.141 1237.23 936.007Z" fill="#e7ab29" fill-rule="nonzero" opacity="1" stroke="none"/>
<path d="M316.176 856.368L355.207 856.48" fill="none" opacity="1" stroke="#e7ab29" stroke-linecap="square" stroke-linejoin="miter" stroke-width="19.8314"/>
<path d="M363.389 856.504L922.626 858.107" fill="none" opacity="1" stroke="#ffffff" stroke-linecap="butt" stroke-linejoin="miter" stroke-width="16.9459"/>
<path d="M995.038 858.314L895.602 812.771L850.214 857.899L895.342 903.286L995.038 858.314L995.038 858.314Z" fill="#ffffff" fill-rule="nonzero" opacity="1" stroke="none"/>
<path d="M393.406 808.481C366.822 808.395 345.236 829.858 345.168 856.442C345.121 869.739 350.472 881.784 359.155 890.516C367.838 899.249 379.843 904.66 393.13 904.698C419.705 904.774 533.27 856.867 533.27 856.867C533.27 856.867 419.981 808.557 393.406 808.481Z" fill="#ffffff" fill-rule="nonzero" opacity="1" stroke="#e7ab29" stroke-linecap="butt" stroke-linejoin="miter" stroke-width="15.4922"/>
<g fill="#e8ab29" opacity="1" stroke="none">
<path d="M530.065 1271.63L563.529 1271.63L563.529 1241.28L575.236 1241.28L575.236 1318.86L563.529 1318.86L563.529 1282.63L530.065 1282.63L530.065 1318.86L518.358 1318.86L518.358 1241.28L530.065 1241.28L530.065 1271.63Z"/>
<path d="M605.535 1241.28L605.535 1288.01C605.535 1294.67 606.623 1299.55 608.801 1302.63C612.05 1307.08 616.622 1309.31 622.518 1309.31C628.447 1309.31 633.036 1307.08 636.285 1302.63C638.463 1299.65 639.551 1294.77 639.551 1288.01L639.551 1241.28L651.259 1241.28L651.259 1291.22C651.259 1299.4 648.713 1306.13 643.621 1311.42C637.893 1317.32 630.859 1320.27 622.518 1320.27C614.177 1320.27 607.159 1317.32 601.465 1311.42C596.373 1306.13 593.827 1299.4 593.827 1291.22L593.827 1241.28L605.535 1241.28Z"/>
<path d="M669.85 1318.86L669.85 1236L726.427 1295.19L726.427 1241.28L738.134 1241.28L738.134 1323.58L681.557 1264.54L681.557 1318.86L669.85 1318.86Z"/>
<path d="M797.424 1278.46L829.481 1278.46L829.481 1281.02C829.481 1286.85 828.795 1292.01 827.421 1296.5C826.081 1300.65 823.82 1304.54 820.638 1308.16C813.436 1316.26 804.275 1320.32 793.153 1320.32C782.3 1320.32 773.005 1316.4 765.267 1308.56C757.529 1300.69 753.66 1291.24 753.66 1280.22C753.66 1268.96 757.596 1259.42 765.468 1251.58C773.34 1243.71 782.92 1239.77 794.209 1239.77C800.272 1239.77 805.933 1241.01 811.192 1243.49C816.216 1245.97 821.157 1249.99 826.014 1255.55L817.674 1263.54C811.309 1255.06 803.554 1250.83 794.41 1250.83C786.203 1250.83 779.319 1253.66 773.758 1259.32C768.198 1264.88 765.418 1271.85 765.418 1280.22C765.418 1288.86 768.516 1295.98 774.713 1301.57C780.508 1306.77 786.789 1309.36 793.555 1309.36C799.317 1309.36 804.492 1307.42 809.081 1303.53C813.671 1299.61 816.233 1294.93 816.769 1289.47L797.424 1289.47L797.424 1278.46Z"/>
<path d="M887.013 1252.28L855.911 1252.28L855.911 1270.92L886.109 1270.92L886.109 1281.93L855.911 1281.93L855.911 1307.86L887.013 1307.86L887.013 1318.86L844.203 1318.86L844.203 1241.28L887.013 1241.28L887.013 1252.28Z"/>
<path d="M928.667 1285.8L952.685 1318.86L938.365 1318.86L916.206 1287.1L914.096 1287.1L914.096 1318.86L902.388 1318.86L902.388 1241.28L916.106 1241.28C926.356 1241.28 933.759 1243.21 938.314 1247.06C943.339 1251.35 945.851 1257.01 945.851 1264.04C945.851 1269.53 944.277 1274.26 941.128 1278.21C937.979 1282.16 933.826 1284.69 928.667 1285.8ZM914.096 1276.9L917.814 1276.9C928.902 1276.9 934.445 1272.67 934.445 1264.19C934.445 1256.25 929.052 1252.28 918.266 1252.28L914.096 1252.28L914.096 1276.9Z"/>
<path d="M1035.99 1278.46L1068.05 1278.46L1068.05 1281.02C1068.05 1286.85 1067.36 1292.01 1065.99 1296.5C1064.65 1300.65 1062.39 1304.54 1059.21 1308.16C1052 1316.26 1042.84 1320.32 1031.72 1320.32C1020.87 1320.32 1011.57 1316.4 1003.84 1308.56C996.097 1300.69 992.228 1291.24 992.228 1280.22C992.228 1268.96 996.164 1259.42 1004.04 1251.58C1011.91 1243.71 1021.49 1239.77 1032.78 1239.77C1038.84 1239.77 1044.5 1241.01 1049.76 1243.49C1054.78 1245.97 1059.73 1249.99 1064.58 1255.55L1056.24 1263.54C1049.88 1255.06 1042.12 1250.83 1032.98 1250.83C1024.77 1250.83 1017.89 1253.66 1012.33 1259.32C1006.77 1264.88 1003.99 1271.85 1003.99 1280.22C1003.99 1288.86 1007.08 1295.98 1013.28 1301.57C1019.08 1306.77 1025.36 1309.36 1032.12 1309.36C1037.89 1309.36 1043.06 1307.42 1047.65 1303.53C1052.24 1299.61 1054.8 1294.93 1055.34 1289.47L1035.99 1289.47L1035.99 1278.46Z"/>
<path d="M1124.83 1300.02L1091.62 1300.02L1082.97 1318.86L1070.36 1318.86L1108.75 1236.41L1145.78 1318.86L1132.97 1318.86L1124.83 1300.02ZM1120.05 1289.01L1108.55 1262.63L1096.49 1289.01L1120.05 1289.01Z"/>
<path d="M1152.76 1318.86L1169.09 1235.45L1195.73 1295.75L1223.31 1235.45L1237.98 1318.86L1225.97 1318.86L1218.49 1272.03L1195.52 1322.43L1173.21 1271.98L1164.87 1318.86L1152.76 1318.86Z"/>
<path d="M1297.22 1252.28L1266.12 1252.28L1266.12 1270.92L1296.32 1270.92L1296.32 1281.93L1266.12 1281.93L1266.12 1307.86L1297.22 1307.86L1297.22 1318.86L1254.41 1318.86L1254.41 1241.28L1297.22 1241.28L1297.22 1252.28Z"/>
<path d="M1356.46 1252.84L1346.97 1258.46C1345.19 1255.38 1343.5 1253.37 1341.89 1252.43C1340.22 1251.36 1338.06 1250.83 1335.41 1250.83C1332.16 1250.83 1329.46 1251.75 1327.32 1253.59C1325.18 1255.4 1324.1 1257.68 1324.1 1260.42C1324.1 1264.21 1326.92 1267.26 1332.55 1269.57L1340.28 1272.73C1346.58 1275.28 1351.19 1278.39 1354.1 1282.05C1357.01 1285.72 1358.47 1290.22 1358.47 1295.54C1358.47 1302.68 1356.09 1308.58 1351.34 1313.23C1346.55 1317.92 1340.6 1320.27 1333.5 1320.27C1326.77 1320.27 1321.21 1318.27 1316.82 1314.29C1312.5 1310.3 1309.8 1304.69 1308.73 1297.45L1320.59 1294.84C1321.12 1299.4 1322.06 1302.55 1323.4 1304.29C1325.81 1307.64 1329.33 1309.31 1333.95 1309.31C1337.6 1309.31 1340.63 1308.09 1343.05 1305.64C1345.46 1303.2 1346.66 1300.1 1346.66 1296.35C1346.66 1294.84 1346.45 1293.46 1346.04 1292.2C1345.62 1290.95 1344.96 1289.79 1344.08 1288.74C1343.19 1287.68 1342.04 1286.69 1340.63 1285.77C1339.23 1284.85 1337.55 1283.97 1335.61 1283.13L1328.12 1280.02C1317.5 1275.53 1312.2 1268.96 1312.2 1260.32C1312.2 1254.49 1314.42 1249.62 1318.88 1245.7C1323.33 1241.75 1328.88 1239.77 1335.51 1239.77C1344.45 1239.77 1351.44 1244.13 1356.46 1252.84Z"/>
</g>
</g>
</svg>
