<?xml version="1.0" encoding="UTF-8" standalone="no"?>
<!DOCTYPE svg PUBLIC "-//W3C//DTD SVG 1.1//EN" "http://www.w3.org/Graphics/SVG/1.1/DTD/svg11.dtd">
<!-- Created with Vectornator (http://vectornator.io/) -->
<svg height="100%" stroke-miterlimit="10" style="fill-rule:nonzero;clip-rule:evenodd;stroke-linecap:round;stroke-linejoin:round;" version="1.1" viewBox="0 0 1080 810" width="100%" xml:space="preserve" xmlns="http://www.w3.org/2000/svg" xmlns:vectornator="http://vectornator.io" xmlns:xlink="http://www.w3.org/1999/xlink">
<defs/>
<g id="Layer-1" vectornator:layerName="Layer 1">
<path d="M253.031 341.349L409.366 341.349L409.366 180.594L517.641 180.594L517.641 597.121L409.366 597.121L409.366 425.318L253.031 425.318L253.031 597.121L144.756 597.121L144.756 180.594L253.031 180.594L253.031 341.349Z" fill="#000000" opacity="1" stroke="none"/>
<path d="M971.676 308.813L949.946 324.463L878.008 224.577L899.738 208.927L971.676 308.813Z" fill="#000000" fill-rule="nonzero" opacity="1" stroke="none"/>
<path d="M735.316 165.851C725.999 165.329 716.7 165.562 707.45 166.561C670.449 170.556 634.713 185.251 600.066 210.402C573.347 229.797 552.248 251.61 536.701 275.897C521.154 300.184 511.214 325.584 506.882 352.042C502.55 378.5 504.021 405.501 511.319 433.156C518.617 460.811 531.612 487.546 550.368 513.384C569.337 539.515 590.972 560.283 615.153 575.684C639.333 591.083 664.663 600.993 691.12 605.325C717.578 609.657 744.412 608.357 771.88 601.42C799.348 594.482 826.093 581.66 851.93 562.904C870.721 549.264 886.943 533.817 900.563 516.756C914.182 499.696 924.771 481.558 932.512 462.265C940.252 442.973 944.597 422.771 945.469 401.74C946.341 380.708 943.536 359.288 937.127 337.487C934.925 329.97 932.201 322.445 928.962 314.946L833.47 383.636C838.295 393.522 841.257 403.02 841.99 412.035C842.782 421.771 841.486 431.061 838.263 439.901C835.041 448.741 830.252 457.088 823.708 464.75C817.166 472.414 809.504 479.337 800.989 485.517C786.602 495.961 772.238 502.532 757.858 505.574C743.478 508.615 729.527 508.521 715.792 505.041C702.058 501.562 688.975 495.068 676.566 485.695C664.157 476.32 652.718 464.644 642.487 450.551C631.191 434.989 623.254 419.231 618.348 403.515C613.441 387.799 611.327 372.822 612.313 358.432C613.3 344.042 617.328 330.657 624.383 318.14C631.436 305.623 641.459 294.682 654.379 285.304C669.941 274.008 686.669 267.761 704.61 266.845C722.55 265.927 741.98 271.931 762.828 284.594L820.158 191.233C791.603 175.982 763.269 167.416 735.316 165.851Z" fill="#000000" fill-rule="nonzero" opacity="1" stroke="none"/>
<path d="M730.743 376.32L897.239 245.476L926.347 282.515L759.851 413.359L730.743 376.32Z" fill="#fffffe" fill-rule="nonzero" opacity="1" stroke="none"/>
<path d="M929.342 292.217L955.945 273.066L966.99 274.863L1017.57 213.094C1018.07 210.04 1007.19 195.522 1004.14 195.026L928.084 220.835L926.287 231.88L899.69 251.032L929.342 292.217ZM717.858 419.008L774.654 428.25C776.332 428.523 778.043 428.122 779.416 427.127L950.771 303.737L926.994 270.718L766.646 386.183C763.777 388.249 759.789 387.6 757.723 384.731C755.657 381.862 756.306 377.873 759.175 375.807L919.523 260.342L895.746 227.323L724.392 350.714C723.013 351.701 722.089 353.202 721.817 354.875L712.574 411.67C712.007 415.154 714.368 418.44 717.858 419.008Z" fill="#000000" fill-rule="nonzero" opacity="1" stroke="none"/>
<path d="M103.157 373.542L129.049 373.616" fill="none" opacity="1" stroke="#000000" stroke-linecap="square" stroke-linejoin="miter" stroke-width="13.1557"/>
<path d="M134.477 373.631L505.463 374.695" fill="none" opacity="1" stroke="#ffffff" stroke-linecap="butt" stroke-linejoin="miter" stroke-width="11.2416"/>
<path d="M553.499 374.833L487.535 344.62L457.426 374.557L487.363 404.666L553.499 374.833L553.499 374.833Z" fill="#ffffff" fill-rule="nonzero" opacity="1" stroke="none"/>
<path d="M154.389 341.774C136.754 341.717 122.434 355.955 122.389 373.591C122.358 382.412 125.908 390.402 131.668 396.195C137.428 401.988 145.392 405.577 154.206 405.603C171.836 405.653 247.172 373.872 247.172 373.872C247.172 373.872 172.019 341.825 154.389 341.774Z" fill="#ffffff" fill-rule="nonzero" opacity="1" stroke="#000000" stroke-linecap="butt" stroke-linejoin="miter" stroke-width="10.2772"/>
<g fill="#000000" opacity="1" stroke="none">
<path d="M243.954 647.373L266.113 647.373L266.113 627.276L273.866 627.276L273.866 678.65L266.113 678.65L266.113 654.66L243.954 654.66L243.954 678.65L236.201 678.65L236.201 627.276L243.954 627.276L243.954 647.373Z"/>
<path d="M293.929 627.276L293.929 658.22C293.929 662.634 294.65 665.862 296.092 667.902C298.244 670.853 301.272 672.328 305.176 672.328C309.102 672.328 312.141 670.853 314.292 667.902C315.734 665.928 316.455 662.701 316.455 658.22L316.455 627.276L324.208 627.276L324.208 660.349C324.208 665.762 322.522 670.22 319.15 673.725C315.357 677.629 310.699 679.581 305.176 679.581C299.652 679.581 295.005 677.629 291.234 673.725C287.863 670.22 286.177 665.762 286.177 660.349L286.177 627.276L293.929 627.276Z"/>
<path d="M336.519 678.65L336.519 623.783L373.984 662.978L373.984 627.276L381.736 627.276L381.736 681.777L344.271 642.682L344.271 678.65L336.519 678.65Z"/>
<path d="M420.998 651.898L442.226 651.898L442.226 653.595C442.226 657.455 441.771 660.871 440.862 663.843C439.975 666.594 438.477 669.167 436.37 671.562C431.601 676.93 425.534 679.614 418.17 679.614C410.983 679.614 404.828 677.019 399.704 671.829C394.58 666.616 392.018 660.361 392.018 653.063C392.018 645.61 394.624 639.288 399.837 634.097C405.049 628.885 411.393 626.278 418.869 626.278C422.884 626.278 426.632 627.099 430.115 628.74C433.442 630.382 436.714 633.044 439.93 636.726L434.407 642.016C430.192 636.404 425.057 633.598 419.002 633.598C413.567 633.598 409.009 635.473 405.327 639.221C401.644 642.903 399.803 647.517 399.803 653.063C399.803 658.786 401.855 663.499 405.959 667.204C409.796 670.642 413.955 672.361 418.436 672.361C422.251 672.361 425.678 671.074 428.717 668.501C431.756 665.906 433.453 662.801 433.808 659.185L420.998 659.185L420.998 651.898Z"/>
<path d="M480.323 634.563L459.728 634.563L459.728 646.907L479.725 646.907L479.725 654.194L459.728 654.194L459.728 671.363L480.323 671.363L480.323 678.65L451.975 678.65L451.975 627.276L480.323 627.276L480.323 634.563Z"/>
<path d="M507.907 656.756L523.811 678.65L514.328 678.65L499.655 657.621L498.258 657.621L498.258 678.65L490.505 678.65L490.505 627.276L499.588 627.276C506.376 627.276 511.278 628.552 514.295 631.103C517.622 633.942 519.286 637.691 519.286 642.349C519.286 645.987 518.243 649.114 516.158 651.732C514.073 654.349 511.323 656.024 507.907 656.756ZM498.258 650.867L500.72 650.867C508.062 650.867 511.733 648.061 511.733 642.449C511.733 637.192 508.162 634.563 501.019 634.563L498.258 634.563L498.258 650.867Z"/>
<path d="M578.977 651.898L600.205 651.898L600.205 653.595C600.205 657.455 599.751 660.871 598.841 663.843C597.954 666.594 596.457 669.167 594.349 671.562C589.58 676.93 583.513 679.614 576.149 679.614C568.962 679.614 562.807 677.019 557.683 671.829C552.559 666.616 549.997 660.361 549.997 653.063C549.997 645.61 552.603 639.288 557.816 634.097C563.029 628.885 569.373 626.278 576.848 626.278C580.863 626.278 584.611 627.099 588.094 628.74C591.421 630.382 594.693 633.044 597.91 636.726L592.386 642.016C588.172 636.404 583.037 633.598 576.981 633.598C571.546 633.598 566.988 635.473 563.306 639.221C559.624 642.903 557.783 647.517 557.783 653.063C557.783 658.786 559.834 663.499 563.938 667.204C567.775 670.642 571.935 672.361 576.415 672.361C580.231 672.361 583.658 671.074 586.697 668.501C589.736 665.906 591.432 662.801 591.787 659.185L578.977 659.185L578.977 651.898Z"/>
<path d="M637.804 666.172L615.81 666.172L610.087 678.65L601.736 678.65L627.156 624.049L651.678 678.65L643.194 678.65L637.804 666.172ZM634.643 658.885L627.023 641.417L619.038 658.885L634.643 658.885Z"/>
<path d="M656.303 678.65L667.117 623.417L684.751 663.344L703.018 623.417L712.734 678.65L704.782 678.65L699.824 647.639L684.618 681.012L669.845 647.606L664.322 678.65L656.303 678.65Z"/>
<path d="M751.963 634.563L731.367 634.563L731.367 646.907L751.364 646.907L751.364 654.194L731.367 654.194L731.367 671.363L751.963 671.363L751.963 678.65L723.614 678.65L723.614 627.276L751.963 627.276L751.963 634.563Z"/>
<path d="M791.191 634.929L784.903 638.656C783.727 636.615 782.607 635.284 781.542 634.663C780.433 633.953 779.002 633.598 777.25 633.598C775.098 633.598 773.313 634.208 771.893 635.428C770.473 636.626 769.763 638.134 769.763 639.953C769.763 642.46 771.627 644.478 775.353 646.009L780.477 648.105C784.647 649.791 787.697 651.848 789.627 654.277C791.557 656.706 792.522 659.684 792.522 663.211C792.522 667.936 790.947 671.84 787.797 674.923C784.625 678.028 780.688 679.581 775.985 679.581C771.527 679.581 767.845 678.261 764.939 675.622C762.077 672.982 760.292 669.267 759.582 664.475L767.434 662.745C767.789 665.762 768.41 667.847 769.298 669C770.895 671.219 773.224 672.328 776.285 672.328C778.703 672.328 780.71 671.518 782.307 669.899C783.904 668.279 784.703 666.228 784.703 663.743C784.703 662.745 784.564 661.83 784.287 660.998C784.01 660.166 783.577 659.401 782.989 658.702C782.402 658.004 781.642 657.349 780.71 656.739C779.779 656.129 778.669 655.547 777.383 654.993L772.425 652.93C765.394 649.957 761.878 645.61 761.878 639.887C761.878 636.027 763.353 632.8 766.303 630.204C769.253 627.587 772.924 626.278 777.316 626.278C783.239 626.278 787.864 629.162 791.191 634.929Z"/>
</g>
</g>
</svg>
