<?xml version="1.0" encoding="UTF-8" standalone="no"?>
<!DOCTYPE svg PUBLIC "-//W3C//DTD SVG 1.1//EN" "http://www.w3.org/Graphics/SVG/1.1/DTD/svg11.dtd">
<!-- Created with Vectornator (http://vectornator.io/) -->
<svg height="100%" stroke-miterlimit="10" style="fill-rule:nonzero;clip-rule:evenodd;stroke-linecap:round;stroke-linejoin:round;" version="1.1" viewBox="0 0 1080 810" width="100%" xml:space="preserve" xmlns="http://www.w3.org/2000/svg" xmlns:vectornator="http://vectornator.io" xmlns:xlink="http://www.w3.org/1999/xlink">
<defs/>
<g id="Layer-1" vectornator:layerName="Layer 1">
<g opacity="1">
<path d="M566.057 413.101L552.238 423.053L506.489 359.531L520.308 349.578L566.057 413.101Z" fill="#000000" fill-rule="nonzero" opacity="1" stroke="none"/>
<path d="M415.745 322.185C409.82 321.853 403.906 322.001 398.024 322.636C374.493 325.176 351.767 334.522 329.733 350.516C312.741 362.851 299.323 376.722 289.436 392.168C279.549 407.613 273.228 423.766 270.473 440.592C267.718 457.418 268.654 474.589 273.295 492.176C277.936 509.763 286.2 526.766 298.128 543.197C310.191 559.815 323.95 573.022 339.328 582.816C354.705 592.609 370.813 598.912 387.639 601.667C404.465 604.421 421.529 603.594 438.998 599.183C456.466 594.771 473.474 586.617 489.905 574.689C501.855 566.014 512.172 556.191 520.833 545.341C529.494 534.492 536.228 522.957 541.151 510.688C546.073 498.419 548.836 485.572 549.391 472.197C549.946 458.822 548.161 445.2 544.086 431.336C542.686 426.556 540.953 421.77 538.893 417.001L478.166 460.684C481.234 466.971 483.118 473.012 483.584 478.744C484.087 484.936 483.263 490.844 481.213 496.466C479.164 502.087 476.119 507.396 471.958 512.268C467.797 517.142 462.924 521.545 457.509 525.475C448.36 532.117 439.226 536.296 430.08 538.23C420.935 540.164 412.063 540.104 403.329 537.891C394.594 535.678 386.274 531.549 378.383 525.588C370.491 519.626 363.217 512.201 356.711 503.238C349.527 493.342 344.48 483.321 341.36 473.326C338.239 463.331 336.894 453.807 337.522 444.655C338.149 435.504 340.711 426.992 345.197 419.032C349.683 411.072 356.057 404.114 364.273 398.15C374.17 390.967 384.808 386.994 396.217 386.411C407.626 385.828 419.983 389.646 433.241 397.699L469.7 338.326C451.541 328.627 433.521 323.18 415.745 322.185Z" fill="#000000" fill-rule="nonzero" opacity="1" stroke="none"/>
<path d="M412.837 456.032L518.719 372.822L537.23 396.377L431.348 479.586L412.837 456.032Z" fill="#fffffe" fill-rule="nonzero" opacity="1" stroke="none"/>
<path d="M539.135 402.547L556.053 390.367L537.192 364.175L520.278 376.355L539.135 402.547ZM404.642 483.179L440.762 489.056C441.829 489.23 442.917 488.975 443.79 488.342L552.762 409.872L537.642 388.874L435.669 462.304C433.844 463.617 431.308 463.205 429.994 461.38C428.68 459.556 429.093 457.019 430.918 455.706L532.89 382.276L517.77 361.278L408.798 439.747C407.921 440.375 407.333 441.33 407.16 442.393L401.282 478.513C400.922 480.728 402.423 482.818 404.642 483.179Z" fill="#000000" fill-rule="nonzero" opacity="1" stroke="none"/>
</g>
<g opacity="1">
<path d="M522.398 344.304L536.423 334.644L580.826 399.115L566.8 408.774L522.398 344.304Z" fill="#000000" fill-rule="nonzero" opacity="1" stroke="none"/>
<path d="M670.764 438.362C676.681 438.818 682.596 438.794 688.491 438.283C712.07 436.238 734.988 427.373 757.353 411.845C774.6 399.871 788.307 386.284 798.517 371.05C808.726 355.817 815.386 339.8 818.494 323.036C821.602 306.272 821.029 289.084 816.758 271.404C812.488 253.723 804.583 236.551 793.004 219.872C781.293 203.004 767.815 189.51 752.647 179.395C737.479 169.28 721.507 162.641 704.743 159.533C687.978 156.424 670.9 156.892 653.343 160.935C635.786 164.979 618.61 172.774 601.932 184.353C589.802 192.774 579.281 202.379 570.393 213.044C561.506 223.708 554.531 235.099 549.351 247.262C544.172 259.424 541.139 272.211 540.303 285.571C539.467 298.932 540.965 312.588 544.748 326.535C546.047 331.343 547.678 336.165 549.637 340.976L611.27 298.58C608.335 292.229 606.579 286.151 606.233 280.41C605.86 274.208 606.808 268.319 608.976 262.742C611.143 257.165 614.299 251.921 618.562 247.137C622.825 242.353 627.789 238.053 633.285 234.238C642.572 227.79 651.792 223.804 660.976 222.062C670.16 220.321 679.029 220.567 687.715 222.964C696.401 225.36 704.632 229.664 712.396 235.789C720.161 241.915 727.278 249.492 733.594 258.59C740.568 268.635 745.403 278.76 748.312 288.818C751.222 298.876 752.366 308.427 751.546 317.563C750.726 326.699 747.986 335.155 743.333 343.019C738.681 350.883 732.162 357.705 723.822 363.495C713.777 370.469 703.058 374.217 691.638 374.56C680.22 374.903 667.946 370.826 654.86 362.496L617.161 421.089C635.112 431.167 653.013 436.992 670.764 438.362Z" fill="#000000" fill-rule="nonzero" opacity="1" stroke="none"/>
<path d="M676.487 304.605L568.878 385.569L550.867 361.631L658.476 280.666L676.487 304.605Z" fill="#fffffe" fill-rule="nonzero" opacity="1" stroke="none"/>
<path d="M549.092 355.422L531.922 367.243L550.227 393.826L567.394 382.004L549.092 355.422ZM685.251 277.636L649.263 271C648.199 270.804 647.106 271.037 646.22 271.651L535.622 347.811L550.297 369.123L653.792 297.854C655.644 296.579 658.171 297.045 659.446 298.897C660.721 300.749 660.255 303.276 658.403 304.551L554.909 375.819L569.584 397.131L680.183 320.971C681.073 320.362 681.68 319.419 681.876 318.36L688.512 282.372C688.919 280.165 687.462 278.044 685.251 277.636Z" fill="#000000" fill-rule="nonzero" opacity="1" stroke="none"/>
</g>
</g>
<g id="Layer-2" vectornator:layerName="Layer 2"/>
</svg>
